<svg id="svg-source" height="0" version="1.1" 
  xmlns="http://www.w3.org/2000/svg" style="position:absolute; margin-left: -100%" 
  xmlns:xlink="http://www.w3.org/1999/xlink">
<path id="storm-trooper" d="M13.268,1.346c0.001,0.192-0.153,0.349-0.345,0.351c-0.477,0.004-4.66,0.166-4.66,4.619v1.085
	c0,0.191-0.155,0.348-0.348,0.348S7.567,7.593,7.567,7.401V6.316c0-5.125,4.802-5.311,5.35-5.314c0.001,0,0.003,0,0.003,0
	C13.111,1.001,13.266,1.155,13.268,1.346z M24.181,10.174c0.064,0.099,0.074,0.223,0.027,0.33c-0.104,0.235-1.044,2.295-2.239,2.295
	c-1.058,0-4.673-1.91-5.082-2.127c-0.141-0.075-0.212-0.237-0.174-0.392s0.178-0.263,0.337-0.263h6.838
	C24.007,10.017,24.117,10.076,24.181,10.174z M23.326,10.712h-4.832c1.389,0.686,2.976,1.391,3.476,1.391
	C22.424,12.103,22.976,11.339,23.326,10.712z M14.59,10.271c0.042,0.149-0.021,0.31-0.154,0.391
	c-0.358,0.219-3.533,2.137-4.601,2.137c-1.194,0-2.135-2.06-2.239-2.295c-0.047-0.107-0.037-0.231,0.027-0.33
	c0.065-0.098,0.174-0.157,0.292-0.157h6.34C14.411,10.017,14.548,10.12,14.59,10.271z M12.97,10.712H8.477
	c0.379,0.684,0.93,1.391,1.358,1.391C10.331,12.103,11.749,11.396,12.97,10.712z M7.347,18.093
	c-0.593,0.111-1.138,0.367-1.619,0.759c-0.149,0.121-0.171,0.34-0.05,0.489c0.069,0.084,0.169,0.127,0.27,0.127
	c0.078,0,0.156-0.025,0.22-0.079c0.389-0.316,0.83-0.523,1.306-0.613c0.189-0.035,0.313-0.217,0.278-0.406
	C7.717,18.183,7.531,18.056,7.347,18.093z M5.888,17.935c0.038,0,0.077-0.007,0.114-0.019c0.316-0.11,0.653-0.166,1.004-0.166
	c0.192,0,0.348-0.156,0.348-0.348c0-0.192-0.155-0.348-0.348-0.348c-0.429,0-0.844,0.069-1.233,0.204
	c-0.181,0.064-0.277,0.262-0.214,0.443C5.61,17.846,5.744,17.935,5.888,17.935z M27.654,15.272c1.844,2.137,1.575,3.445-1.298,6.259
	c-0.036,0.526-0.288,2.365-2.025,4.103c-0.792,0.792-1.879,1.213-3.104,1.213c-0.191,0-0.387-0.011-0.584-0.031
	c-1.139-0.12-2.298-0.595-2.885-1.182c-0.165-0.164-0.343-0.299-0.527-0.417c-0.137,0.274-0.414,0.469-0.742,0.469
	c-0.189,0-0.356-0.075-0.497-0.181c-0.141,0.106-0.307,0.181-0.496,0.181c-0.317,0-0.584-0.184-0.727-0.444
	c-0.181,0.118-0.365,0.229-0.527,0.393c-0.587,0.587-1.747,1.062-2.885,1.182c-0.198,0.021-0.394,0.031-0.585,0.031
	c-1.226,0-2.312-0.421-3.104-1.213c-1.738-1.737-1.989-3.577-2.026-4.103c-2.873-2.813-3.141-4.122-1.297-6.259
	c1.071-1.242,1.277-1.903,1.291-1.952l0-2.956c0-0.29,0.082-0.511,0.193-0.7C5.758,9.628,5.697,9.576,5.664,9.499
	C5.609,9.37,5.637,9.222,5.734,9.121l0.832-0.86V6.316C6.565,0.072,12.856,0,12.92,0h3.008h0h0.001h3.128
	c0.062,0,6.234,0.072,6.234,6.316V8.25l0.929,0.857c0.105,0.097,0.141,0.249,0.088,0.382c-0.028,0.072-0.081,0.128-0.145,0.166
	c0.114,0.192,0.2,0.415,0.2,0.709v2.956C26.377,13.368,26.583,14.029,27.654,15.272z M25.435,13.928
	c0.196-0.181,0.23-0.492,0.235-0.541l-0.001-3.022c0-0.283-0.108-0.443-0.234-0.534v0.534V13.928z M7.261,8.055h17.334V6.316
	c0-5.543-5.313-5.62-5.54-5.62h-3.127h-0.001h0H12.92c-0.231,0-5.659,0.077-5.659,5.62V8.055z M6.805,9.015h18.291L24.808,8.75
	H7.061L6.805,9.015z M24.739,10.364V9.711H7.261v0.653c0,1.291,0.216,2.224,0.641,2.774c0.347,0.45,0.834,0.659,1.532,0.659
	c1.006,0,2.25-0.446,3.454-0.878c1.174-0.419,2.282-0.816,3.184-0.816c0.906,0,2.007,0.397,3.171,0.818
	c1.177,0.424,2.393,0.863,3.372,0.863C23.604,13.784,24.739,13.395,24.739,10.364z M24.238,13.975v0.858
	c0.134-0.214,0.267-0.429,0.403-0.671c0.021-0.04,0.065-0.05,0.099-0.076v-0.63C24.596,13.664,24.425,13.83,24.238,13.975z
	 M20.9,17.748c0.276,0,0.611-0.053,1.004-0.246c0.54-0.371,1.101-0.912,1.686-1.701c-0.016-0.039-0.048-0.07-0.048-0.115V14.33
	c-0.28,0.09-0.582,0.149-0.927,0.149c-1.101,0-2.375-0.459-3.607-0.905c-1.106-0.398-2.151-0.775-2.936-0.775
	c-0.781,0-1.834,0.377-2.949,0.777c-1.259,0.45-2.562,0.917-3.688,0.917c-0.44,0-0.83-0.078-1.172-0.224v1.417
	c0,0.016-0.016,0.027-0.018,0.043c0.097,0.129,0.198,0.277,0.291,0.391c1.173,1.434,2.045,1.64,2.649,1.64
	c0.774,0,1.507-0.387,2.284-0.797c0.816-0.431,1.66-0.876,2.603-0.876c0.947,0,1.787,0.445,2.6,0.876
	C19.431,17.366,20.149,17.748,20.9,17.748z M18.863,17.846v0.2c0.228,0.057,0.461,0.098,0.7,0.118
	C19.325,18.071,19.092,17.961,18.863,17.846z M17.889,17.34v0.386c0.092,0.035,0.185,0.071,0.278,0.104v-0.345
	C18.074,17.435,17.981,17.388,17.889,17.34z M16.836,16.908v0.412c0.115,0.041,0.236,0.087,0.357,0.134v-0.433
	C17.074,16.975,16.956,16.942,16.836,16.908z M16.072,16.782c-0.077,0-0.152,0.019-0.228,0.027v0.312
	c0.019,0,0.039-0.005,0.058-0.005c0.076,0,0.16,0.032,0.238,0.042V16.79C16.117,16.789,16.096,16.782,16.072,16.782z M14.866,17.058
	v0.299c0.095-0.035,0.19-0.072,0.282-0.102V16.96C15.055,16.991,14.96,17.02,14.866,17.058z M13.872,17.537v0.22
	c0.101-0.04,0.2-0.079,0.298-0.12v-0.254C14.071,17.434,13.972,17.485,13.872,17.537z M12.666,18.123
	c0.173-0.033,0.344-0.072,0.511-0.121v-0.106C13.009,17.979,12.838,18.052,12.666,18.123z M7.352,13.565
	c-0.031-0.041-0.062-0.083-0.091-0.126v0.799c0.02,0.035,0.041,0.065,0.061,0.101c0.084,0.143,0.163,0.259,0.245,0.39v-0.944
	C7.495,13.711,7.417,13.648,7.352,13.565z M6.332,13.416c0.003,0.028,0.038,0.333,0.234,0.512v-3.563V9.832
	c-0.126,0.092-0.234,0.253-0.234,0.533V13.416z M4.204,18.739c-0.06-1.136,0.557-2.013,1.096-2.551
	c0.685-0.683,0.997-1.208,1.142-1.531c-0.21-0.086-0.378-0.222-0.498-0.385c-0.214,0.364-0.544,0.844-1.07,1.454
	C3.943,16.805,3.543,17.547,4.204,18.739z M8.596,19.033L6.93,15.239c-0.212,0.377-0.563,0.867-1.139,1.441
	c-1.239,1.239-1.198,2.623,0.12,4.118C6.291,20.208,7.132,19.225,8.596,19.033z M14.66,20.939c0-0.078-0.062-0.14-0.14-0.14
	c-0.078,0-0.141,0.062-0.141,0.14v2.951c0,0.156,0.28,0.156,0.281,0V20.939z M15.637,19.979c0-0.078-0.063-0.14-0.14-0.14
	c-0.078,0-0.142,0.062-0.142,0.14v0.96v2.951v0.96c0,0.153,0.281,0.155,0.282,0V19.979z M16.629,19.979
	c0-0.078-0.062-0.14-0.14-0.14c-0.078,0-0.141,0.062-0.141,0.14v4.872c0,0.155,0.282,0.158,0.281,0V19.979z M17.681,20.939
	c0-0.078-0.062-0.14-0.14-0.14c-0.078,0-0.142,0.062-0.142,0.14v2.951c0,0.156,0.282,0.156,0.281,0V20.939z M25.664,21.454
	c-0.148-0.303-0.955-1.759-2.778-1.759c-0.118,0-0.227-0.06-0.292-0.157c-0.064-0.098-0.074-0.223-0.027-0.33l0.893-2.033
	c-0.37,0.371-0.738,0.658-1.11,0.863c-1.421,1.007-2.723,0.945-3.831,0.636c-0.002,0-0.002,0.003-0.004,0.003
	c-0.009,0-0.014-0.008-0.022-0.01c-0.459-0.13-0.885-0.3-1.27-0.457c-0.524-0.213-0.978-0.398-1.321-0.398s-0.791,0.188-1.31,0.403
	c-0.731,0.306-1.608,0.673-2.599,0.673c-1.041,0-2.209-0.427-3.462-1.735l0.902,2.054c0.047,0.107,0.037,0.232-0.027,0.33
	c-0.064,0.098-0.174,0.157-0.291,0.157c-1.804,0-2.627,1.457-2.778,1.758c0.021,0.338,0.205,2.069,1.825,3.689
	c0.981,0.979,2.24,1.078,3.125,0.982c1.139-0.12,2.077-0.594,2.466-0.982c0.176-0.177,0.366-0.325,0.562-0.459
	c-0.359-0.094-0.631-0.406-0.631-0.793v-2.141c-0.299,0.295-0.636,0.599-1.179,0.796c0.474,0.337,0.777,0.817,0.777,1.357
	c0,1.011-1.047,1.834-2.335,1.834c-0.004,0-0.007-0.004-0.011-0.004c-0.008,0-0.014,0.004-0.022,0.004
	c-0.735,0-1.333-0.599-1.333-1.334c0-0.001,0.001-0.003,0.001-0.003l-0.001-0.185c-0.003-0.677-0.006-1.377,0.417-1.804
	c0.227-0.228,0.546-0.344,0.949-0.344c0.04,0,0.078,0.008,0.118,0.01c0.009-0.001,0.013-0.01,0.022-0.01
	c1.292,0,1.711-0.416,2.195-0.896c0.094-0.094,0.188-0.186,0.287-0.277c0.038-0.034,0.088-0.032,0.134-0.047
	c0.049-0.415,0.39-0.742,0.818-0.742c0.05,0,0.092,0.021,0.14,0.028v-0.153c0-0.46,0.375-0.835,0.837-0.835
	c0.189,0,0.355,0.075,0.496,0.181c0.141-0.106,0.307-0.181,0.497-0.181c0.461,0,0.835,0.375,0.835,0.835v0.168
	c0.071-0.019,0.14-0.043,0.216-0.043c0.432,0,0.776,0.334,0.819,0.754c0.018,0.011,0.04,0.005,0.056,0.021
	c0.105,0.095,0.205,0.193,0.303,0.291c0.484,0.482,0.903,0.898,2.196,0.898c0.009,0,0.014,0.008,0.022,0.01
	c0.04-0.001,0.077-0.01,0.118-0.01c0.402,0,0.721,0.116,0.948,0.344c0.424,0.427,0.42,1.127,0.417,1.804l-0.001,0.181
	c0,0.003,0.001,0.004,0.001,0.007c0,0.735-0.599,1.334-1.334,1.334c-0.007,0-0.014-0.004-0.022-0.004
	c-0.004,0-0.006,0.004-0.01,0.004c-1.288,0-2.335-0.823-2.335-1.834c0-0.54,0.303-1.02,0.776-1.357
	c-0.507-0.185-0.835-0.462-1.12-0.739v2.084c0,0.403-0.293,0.726-0.674,0.803c0.191,0.132,0.375,0.279,0.547,0.45
	c0.388,0.389,1.326,0.863,2.466,0.982c0.883,0.095,2.144-0.003,3.125-0.982C25.459,23.523,25.644,21.793,25.664,21.454z
	 M21.725,24.402v-0.007c-0.003-0.348-0.288-0.63-0.637-0.63c-0.352,0-0.638,0.285-0.638,0.637c0,0.352,0.286,0.639,0.638,0.639
	c0.351,0,0.637-0.286,0.638-0.636C21.725,24.403,21.725,24.403,21.725,24.402z M21.654,23.206c-0.032-0.125-0.074-0.236-0.143-0.306
	c-0.093-0.094-0.242-0.138-0.455-0.138c-0.889,0-1.64,0.521-1.64,1.14c0,0.261,0.155,0.493,0.376,0.689
	c-0.009-0.065-0.038-0.123-0.038-0.189c0-0.735,0.599-1.333,1.333-1.333C21.292,23.069,21.48,23.124,21.654,23.206z M12.247,24.402
	c0,0.066-0.028,0.124-0.038,0.189c0.222-0.196,0.376-0.428,0.376-0.689c0-0.618-0.75-1.14-1.64-1.14
	c-0.213,0-0.363,0.046-0.456,0.138c-0.069,0.071-0.112,0.181-0.144,0.306c0.173-0.083,0.361-0.137,0.566-0.137
	C11.648,23.069,12.247,23.667,12.247,24.402z M10.913,23.765c-0.351,0-0.635,0.284-0.637,0.634v0.003l0,0.001
	c0,0.35,0.287,0.637,0.638,0.637c0.352,0,0.639-0.287,0.639-0.639C11.551,24.05,11.265,23.765,10.913,23.765z M26.209,16.68
	c-0.576-0.575-0.926-1.064-1.139-1.443l-1.666,3.795c1.464,0.192,2.305,1.175,2.685,1.765C27.407,19.303,27.448,17.92,26.209,16.68z
	 M27.127,15.726c-0.527-0.611-0.856-1.092-1.071-1.455c-0.121,0.164-0.287,0.3-0.499,0.386c0.146,0.322,0.458,0.846,1.143,1.531
	c0.538,0.538,1.155,1.416,1.095,2.551C28.458,17.547,28.059,16.806,27.127,15.726z M24.654,18.093
	c-0.186-0.037-0.37,0.09-0.406,0.278c-0.035,0.189,0.089,0.371,0.278,0.406c0.477,0.09,0.917,0.296,1.306,0.613
	c0.064,0.053,0.143,0.079,0.22,0.079c0.101,0,0.201-0.043,0.27-0.127c0.122-0.149,0.099-0.368-0.049-0.489
	C25.792,18.459,25.247,18.204,24.654,18.093z M24.646,17.403c0,0.191,0.155,0.348,0.348,0.348c0.351,0,0.689,0.056,1.005,0.166
	c0.037,0.012,0.076,0.019,0.114,0.019c0.144,0,0.279-0.089,0.329-0.233c0.062-0.181-0.033-0.379-0.215-0.443
	c-0.389-0.135-0.804-0.204-1.233-0.204C24.801,17.055,24.646,17.211,24.646,17.403z"/>
<path id="boba-fett" d="M17.392,21.428c0.03-1.577,0.339-3.336,0.766-3.445c0.986-0.257,4.445-1.022,4.48-1.03
	c0.098-0.022,0.183-0.087,0.231-0.177l0.514-0.971c0.057-0.109,0.054-0.238-0.008-0.342c-0.064-0.105-0.177-0.168-0.299-0.168H9.027
	c-0.12,0-0.232,0.062-0.295,0.164c-0.063,0.104-0.069,0.231-0.016,0.338L9.2,16.768c0.046,0.094,0.133,0.162,0.235,0.185
	c0.001,0,3.5,0.781,4.516,1.031c0.427,0.104,0.713,1.863,0.719,3.443c-0.697,0.582-3.974,3.46-4.989,7.112
	c-0.044,0.16,0.029,0.329,0.177,0.403c0.05,0.026,0.104,0.038,0.158,0.038c0.104,0,0.205-0.046,0.272-0.132
	c0.403-0.507,1.091-1.312,1.871-2.126c0.001-0.001,0.004-0.001,0.005-0.003c0.001-0.001,0-0.004,0.002-0.005
	c1.321-1.377,2.905-2.774,3.834-2.774c1.479,0,4.667,3.544,5.771,4.911c0.102,0.126,0.278,0.166,0.428,0.091
	c0.146-0.073,0.22-0.239,0.18-0.398C21.421,24.891,18.104,22.014,17.392,21.428z M14.117,17.308
	c-0.888-0.217-3.667-0.841-4.368-0.997l-0.16-0.321h12.909l-0.168,0.319c-0.698,0.155-3.46,0.769-4.347,1
	c-1.053,0.271-1.251,2.756-1.287,3.933h-1.33C15.35,20.06,15.186,17.571,14.117,17.308z M11.133,26.794
	c0.07-0.131,0.151-0.254,0.225-0.381l0.069,0.068C11.328,26.585,11.225,26.692,11.133,26.794z M11.908,25.978l-0.186-0.183
	c0.125-0.194,0.257-0.373,0.389-0.554l0.271,0.266C12.219,25.664,12.063,25.82,11.908,25.978z M12.889,25.031l-0.362-0.357
	c0.154-0.197,0.309-0.388,0.462-0.569l0.456,0.451C13.259,24.709,13.073,24.865,12.889,25.031z M14.002,24.129l-0.551-0.545
	c0.182-0.2,0.353-0.382,0.52-0.55l0.68,0.674C14.438,23.83,14.223,23.97,14.002,24.129z M16.74,23.416
	c-0.261-0.099-0.513-0.171-0.74-0.171c-0.214,0-0.45,0.062-0.694,0.152c-0.009-0.011-0.005-0.026-0.015-0.035l-0.823-0.814
	c0.325-0.307,0.565-0.515,0.678-0.61h1.77c0.113,0.092,0.352,0.297,0.679,0.602l-0.831,0.822
	C16.748,23.376,16.752,23.398,16.74,23.416z M20.712,26.396c0.095,0.167,0.198,0.328,0.287,0.5c-0.12-0.13-0.251-0.269-0.382-0.406
	L20.712,26.396z M19.962,25.222c0.13,0.182,0.261,0.363,0.386,0.556l-0.215,0.213c-0.156-0.158-0.312-0.312-0.477-0.469
	L19.962,25.222z M19.542,24.659l-0.396,0.39c-0.183-0.166-0.369-0.323-0.557-0.476l0.492-0.485
	C19.234,24.267,19.389,24.463,19.542,24.659z M18.032,24.148c-0.22-0.159-0.436-0.299-0.648-0.423l0.709-0.701
	c0.168,0.167,0.34,0.348,0.523,0.546L18.032,24.148z M26.265,26.372V13.605c0.002-0.066,0.015-0.662-0.374-1.068
	c-0.142-0.146-0.326-0.231-0.529-0.285V7.536c0-3.275-1.743-5.294-5.155-5.998c-0.938-0.261-1.893-1.207-1.902-1.217
	C18.271,0.288,17.968,0,17.543,0c-0.156,0-0.382,0.041-0.61,0.22h-1.774C14.93,0.041,14.707,0,14.549,0
	c-0.403,0-0.688,0.252-0.757,0.321c-0.002,0.001-0.003,0.002-0.005,0.004c-0.002,0.003-0.01,0.009-0.012,0.011
	c-0.258,0.288-1.083,1.057-1.798,1.167C8.434,2.181,6.638,4.21,6.638,7.536v4.717c-0.202,0.054-0.387,0.139-0.527,0.285
	c-0.39,0.406-0.377,1.001-0.375,1.053v12.781c-0.431,0.172-1.148,0.69-1.148,2.275c0,2.319,3.52,3.353,11.413,3.353
	s11.412-1.034,11.412-3.353C27.413,27.062,26.695,26.544,26.265,26.372z M25.349,17.646v-3.004c0.001-0.012,0.014-0.021,0.014-0.033
	v-1.019v-0.582c0.005,0.005,0.018,0.002,0.023,0.008c0.16,0.163,0.188,0.46,0.183,0.573v12.178L24.342,24.5v-5.382
	c0-0.03-0.024-0.05-0.033-0.078l0.96-1.174C25.32,17.803,25.349,17.726,25.349,17.646z M24.667,13.243h-1.314
	c0.125-0.911,0.854-1.201,1.314-1.282V13.243z M7.333,7.536c0-2.984,1.562-4.736,4.761-5.349c0.595-0.091,1.176-0.478,1.592-0.82
	v5.23c0,0.191,0.155,0.348,0.348,0.348s0.348-0.156,0.348-0.348V0.746c0.049-0.025,0.108-0.05,0.168-0.05
	c0.019,0,0.068,0.013,0.13,0.047v4.861c0,0.191,0.155,0.348,0.348,0.348s0.348-0.156,0.348-0.348V0.916h1.342v4.688
	c0,0.191,0.156,0.348,0.348,0.348c0.192,0,0.348-0.156,0.348-0.348V0.743c0.061-0.034,0.112-0.047,0.13-0.047
	c0.06,0,0.119,0.023,0.168,0.049v5.853c0,0.191,0.156,0.348,0.348,0.348s0.348-0.156,0.348-0.348V1.325
	c0.42,0.326,1.011,0.714,1.637,0.89c3.111,0.641,4.623,2.381,4.623,5.321v3.72c-0.802,0.11-1.884,0.626-2.014,1.987H9.347
	c-0.129-1.361-1.211-1.877-2.013-1.987V7.536z M7.333,11.964c0.454,0.082,1.186,0.37,1.312,1.278H7.333V11.964z M7.333,13.938
	h17.333v0.323H7.333V13.938z M6.432,13.579c-0.003-0.101,0.023-0.398,0.183-0.561c0.005-0.006,0.018-0.003,0.023-0.008v0.582v1.019
	c0,0.012,0.013,0.021,0.014,0.033v3.004c0,0.08,0.028,0.157,0.079,0.22l0.96,1.174c-0.008,0.027-0.033,0.048-0.033,0.078V24.5
	l-1.227,1.269V13.579z M16,31.304c-5.936,0-9.419-0.625-10.412-1.857c1.53,1.095,4.865,1.599,10.413,1.599s8.883-0.504,10.412-1.601
	C25.422,30.678,21.938,31.304,16,31.304z M26.652,28.103C26.14,29.594,22.556,30.351,16,30.351c-6.556,0-10.139-0.756-10.651-2.247
	c-0.003-0.009-0.015-0.012-0.019-0.021c0.167-1.008,0.761-1.103,0.785-1.107c0.049-0.004,0.081-0.041,0.122-0.063
	c0.033-0.017,0.072-0.014,0.098-0.041l1.922-1.987c0.062-0.065,0.098-0.152,0.098-0.242v-0.456l1.514,0.753
	c0.049,0.024,0.103,0.037,0.155,0.037c0.128,0,0.25-0.071,0.312-0.193c0.084-0.172,0.015-0.38-0.157-0.466L8.354,23.41V19.85
	l2.358,2.881v1.91c0,0.191,0.156,0.348,0.348,0.348c0.192,0,0.348-0.156,0.348-0.348v-2.034c0-0.08-0.028-0.157-0.079-0.22
	l-3.982-4.865v-2.565h17.306v2.565l-3.982,4.865c-0.052,0.062-0.079,0.14-0.079,0.22v2.034c0,0.191,0.155,0.348,0.348,0.348
	s0.348-0.156,0.348-0.348v-1.91l2.358-2.881v3.55l-1.769,0.935c-0.168,0.089-0.234,0.3-0.144,0.47
	c0.062,0.117,0.182,0.185,0.307,0.185c0.054,0,0.111-0.014,0.163-0.041l1.442-0.763v0.457c0,0.089,0.036,0.176,0.098,0.242
	l1.922,1.987c0.03,0.031,0.075,0.03,0.111,0.048c0.035,0.018,0.06,0.051,0.102,0.057c0.03,0.004,0.623,0.1,0.791,1.106
	C26.667,28.09,26.654,28.093,26.652,28.103z M8.335,7.536v3.067c0,0.192-0.156,0.348-0.348,0.348c-0.192,0-0.348-0.156-0.348-0.348
	V7.536c0-2.815,1.481-4.467,4.526-5.051c0.187-0.046,0.371,0.085,0.407,0.276c0.036,0.188-0.088,0.371-0.276,0.406
	C9.557,3.692,8.335,5.04,8.335,7.536z"/>
<path id="darth-vader" d="M12.983,2.269c-0.478,0.004-4.66,0.166-4.66,4.619v3.025c0,0.734-0.268,1.41-0.668,2.201
	c-0.062,0.121-0.185,0.19-0.31,0.19c-0.055,0-0.107-0.012-0.158-0.038c-0.171-0.087-0.24-0.296-0.153-0.467
	c0.356-0.701,0.593-1.291,0.593-1.886V6.888c0-5.125,4.801-5.311,5.35-5.314h0.003c0.19,0,0.345,0.153,0.348,0.345
	C13.329,2.11,13.175,2.268,12.983,2.269z M26.252,12.096c1.17,2.201,3.127,5.887,3.127,12.815c0,0.191-0.156,0.348-0.348,0.348
	h-1.041c-0.19,0-0.345-0.153-0.348-0.343c-0.001-0.069-0.094-6.888-1.909-8.792c-0.137-0.144-0.288-0.26-0.431-0.394
	c-0.08,0.483-0.223,1.227-0.477,2.278c0,0.001,0,0.001-0.001,0.001c-0.009,0.042-0.027,0.081-0.052,0.117
	c-0.197,0.435-0.865,1.971-0.935,3.517c0.361,0.207,0.527,0.735,0.527,1.258c0,0.057-0.014,0.113-0.041,0.163
	c-0.231,0.435-0.554,0.863-0.909,1.276c0.337,0.345,0.881,1.122,0.881,2.569c0,2.042-6.313,2.36-8.307,2.407
	c-0.008,0.001-0.016,0.001-0.024,0.001c-0.004,0-0.008,0-0.011,0c-1.959-0.046-8.339-0.356-8.339-2.409
	c0-1.53,0.611-2.319,0.94-2.633c-0.332-0.393-0.639-0.799-0.856-1.212c-0.027-0.05-0.041-0.106-0.041-0.163
	c0-0.523,0.166-1.051,0.526-1.258c-0.078-1.74-0.909-3.458-0.958-3.557c-0.024-0.047-0.038-0.101-0.038-0.155
	c-0.251-1.03-0.392-1.752-0.47-2.223c-0.149,0.14-0.309,0.264-0.453,0.415c-1.816,1.906-1.909,8.723-1.909,8.792
	c-0.002,0.19-0.157,0.343-0.348,0.343H2.968c-0.193,0-0.348-0.156-0.348-0.348c0-6.928,1.959-10.614,3.129-12.815
	c0.508-0.958,0.876-1.648,0.876-2.183V6.888c0-6.244,6.29-6.316,6.355-6.316h1.714c0.035-0.115,0.089-0.24,0.193-0.348
	C15.029,0.078,15.218,0,15.437,0h1.049c0.271,0.03,0.604,0.209,0.742,0.572h1.89c0.062,0,6.233,0.072,6.233,6.316l0.027,3.023
	C25.377,10.448,25.744,11.139,26.252,12.096z M15.336,12.57h1.323L16.6,0.921c0-0.195-0.118-0.224-0.155-0.228l-1.008,0.003
	c-0.087,0.05-0.104,0.169-0.101,0.21V12.57z M15.336,13.567h1.329l-0.001-0.301h-1.327V13.567z M14.641,12.333V1.268h-1.66
	c-0.231,0-5.66,0.077-5.66,5.62v3.025c0,0.708-0.402,1.463-0.958,2.509c-1.121,2.107-2.982,5.609-3.046,12.141h0.354
	c0.004-0.136,0.011-0.318,0.02-0.518c-0.005-0.026-0.027-0.042-0.027-0.069c0.002-0.291,0.098-7.161,2.1-9.265
	C8.469,11.868,12.333,10.903,14.641,12.333z M14.641,13.265v-0.099c-1.793-1.511-5.129-0.853-7.708,1.417
	C9.501,12.575,12.648,12.03,14.641,13.265z M9.033,23.774c-0.266-0.505-0.479-0.961-0.619-1.279
	c-0.027,0.095-0.048,0.206-0.055,0.323C8.539,23.14,8.772,23.462,9.033,23.774z M14.649,25.574v-1.663l-0.329,0.459
	c0,0.012,0.014,0.021,0.014,0.033v1.171H14.649z M14.334,26.27v0.291h0.315V26.27H14.334z M14.619,21.124
	c-1.587-0.653-2.342,0.421-2.375,0.469c-0.098,0.143-0.284,0.191-0.44,0.118l-0.853-0.41c0.443,0.78,0.837,1.678,1.106,2.705
	c0.686-0.637,1.896-1.141,2.562-1.381V21.124z M13.638,25.574v-0.249l-0.179,0.249H13.638z M12.962,26.27l-0.207,0.291h0.883V26.27
	H12.962z M13.993,23.633c-0.931,0.425-1.705,0.929-1.744,1.251c0.057,0.323,0.103,0.656,0.133,1.001L13.993,23.633z M8.386,19.107
	c0.245,0.739,0.485,1.722,0.497,2.712c0.151,0.371,1.217,2.903,2.556,4.192c0.094,0.072,0.188,0.146,0.27,0.205
	C11.486,22.705,9.605,20.309,8.386,19.107z M22.95,24.852c-0.677,0.698-1.396,1.3-1.95,1.721c-0.273,0.255-0.557,0.471-0.853,0.621
	l-0.005,0.004c-0.001,0-0.001,0-0.003,0c-0.001,0.001-0.004,0.002-0.005,0.004c-0.002,0.001-0.005,0.003-0.007,0.004
	c-0.009,0.004-0.018,0.011-0.026,0.015c-0.049,0.024-0.101,0.035-0.152,0.035h-7.87c-0.052,0-0.103-0.011-0.152-0.035
	c-0.008-0.004-0.016-0.009-0.024-0.015c-0.002-0.001-0.005-0.002-0.008-0.004c-0.003-0.001-0.003-0.002-0.005-0.002
	c0-0.001-0.003,0-0.004-0.001c0,0-0.007-0.005-0.009-0.007c-0.291-0.149-0.573-0.363-0.845-0.616
	c-0.568-0.433-1.316-1.057-2.011-1.782c-0.223,0.216-0.706,0.828-0.706,2.115c0,0.946,3.964,1.625,7.646,1.713
	c3.679-0.088,7.645-0.768,7.645-1.713C23.603,25.722,23.191,25.111,22.95,24.852z M16.668,25.574V23.13
	c-0.106-0.097-0.211-0.161-0.315-0.205v2.649H16.668z M16.353,26.27v0.291h0.315V26.27H16.353z M16.668,22.306v-1.403
	c-0.008-0.086-0.079-0.626-0.701-0.626c-0.617,0-0.652,0.521-0.652,0.625v1.38C15.702,22.132,16.186,22.083,16.668,22.306z
	 M15.657,25.574v-2.68c-0.125,0.039-0.232,0.089-0.312,0.137v2.543H15.657z M15.345,26.27v0.291h0.312V26.27H15.345z M21.067,21.314
	l-0.959,0.495c-0.156,0.081-0.354,0.028-0.452-0.123c-0.082-0.126-0.825-1.186-2.292-0.565v1.501
	c0.674,0.241,1.909,0.746,2.605,1.386C20.235,22.985,20.628,22.092,21.067,21.314z M20.318,26.217
	c0.082-0.061,0.177-0.133,0.271-0.205c1.335-1.287,2.398-3.808,2.554-4.188c0.012-0.986,0.25-1.963,0.497-2.711
	C22.421,20.315,20.541,22.714,20.318,26.217z M18.372,26.27v0.291h0.891l-0.238-0.323c-0.029,0.007-0.048,0.032-0.079,0.032H18.372z
	 M18.54,25.574l-0.168-0.229v0.229H18.54z M19.644,25.904c0.03-0.351,0.075-0.69,0.133-1.02c-0.041-0.326-0.849-0.84-1.811-1.268
	L19.644,25.904z M17.363,23.967v1.607h0.312v-1.171c0-0.003,0.001-0.004,0.003-0.005L17.363,23.967z M17.363,26.27v0.291h0.312
	V26.27H17.363z M23.668,22.818c-0.007-0.117-0.029-0.229-0.055-0.325c-0.14,0.319-0.352,0.774-0.619,1.28
	C23.255,23.459,23.489,23.138,23.668,22.818z M24.685,15.165c-2.572-2.042-5.76-2.536-7.434-0.994
	c-0.034,0.031-0.08,0.03-0.121,0.045c-0.04,0.015-0.072,0.047-0.114,0.047h-0.014H17h-1.997h-0.001h-0.014
	c-0.046,0-0.076-0.033-0.116-0.047c-0.041-0.015-0.085-0.014-0.121-0.045c-1.674-1.542-4.848-1.053-7.412,0.975
	c0.042,0.336,0.167,1.156,0.505,2.572c0.345,0.253,1.388,1.082,2.391,2.467l1.633,0.784c0.391-0.39,1.355-1.073,2.845-0.541
	c0.16-0.431,0.539-0.848,1.252-0.848c0.747,0,1.122,0.435,1.287,0.846c1.324-0.478,2.31,0.087,2.793,0.63l1.773-0.913
	c1.005-1.376,2.042-2.194,2.373-2.435C24.517,16.332,24.641,15.513,24.685,15.165z M25.07,14.584
	c-2.583-2.271-5.923-2.931-7.712-1.416l0.001,0.098C19.35,12.03,22.499,12.573,25.07,14.584z M28.683,24.563
	c-0.064-6.532-1.925-10.034-3.044-12.141c-0.556-1.046-0.957-1.801-0.957-2.509l-0.027-3.022c0-5.559-5.312-5.623-5.537-5.623h-1.82
	l0.058,11.072c2.303-1.435,6.173-0.471,8.882,2.371c2.004,2.106,2.099,8.976,2.102,9.267c0,0.026-0.022,0.042-0.027,0.068
	c0.01,0.201,0.017,0.383,0.021,0.519H28.683z M15.304,14.939c0.008,0.027,0.033,0.045,0.033,0.075c0,0.087-0.014,1.741-0.704,3.077
	c-0.004,0.017-0.015,0.027-0.022,0.043c-0.163,0.309-0.352,0.604-0.598,0.852c-0.521,0.524-1.172,0.789-1.935,0.789H10.97
	c-0.193,0-0.348-0.156-0.348-0.348s0.155-0.348,0.348-0.348h1.108c0.462,0,0.841-0.158,1.179-0.408
	c-0.291,0.052-0.614,0.091-0.989,0.091c-0.69,0-1.508-0.119-2.405-0.483c-0.042-0.016-0.08-0.041-0.111-0.072
	c-0.049-0.046-1.153-1.13-0.986-2.228c0.082-0.536,0.435-0.965,1.049-1.276c2.092-1.054,5.151-0.062,5.282-0.019
	c0.027,0.01,0.038,0.038,0.061,0.053c0.04,0.024,0.069,0.046,0.097,0.083C15.282,14.859,15.293,14.895,15.304,14.939z M14.63,15.274
	c-0.72-0.198-2.97-0.72-4.5,0.053c-0.408,0.206-0.629,0.453-0.675,0.757c-0.09,0.58,0.463,1.295,0.736,1.579
	c1.935,0.758,3.446,0.242,3.845,0.078C14.489,16.836,14.604,15.753,14.63,15.274z M22.184,14.706c0.615,0.31,0.968,0.739,1.05,1.275
	c0.167,1.097-0.936,2.181-0.983,2.227c-0.033,0.031-0.069,0.056-0.111,0.072c-0.898,0.364-1.717,0.483-2.406,0.483
	c-0.375,0-0.697-0.039-0.987-0.089c0.338,0.249,0.716,0.406,1.179,0.406h1.114c0.191,0,0.348,0.156,0.348,0.348
	s-0.156,0.348-0.348,0.348h-1.114c-0.764,0-1.415-0.265-1.935-0.788c-0.249-0.249-0.436-0.548-0.601-0.859
	c-0.007-0.014-0.016-0.023-0.021-0.037c-0.688-1.337-0.702-2.991-0.701-3.079c0-0.03,0.024-0.047,0.03-0.075
	c0.011-0.044,0.021-0.08,0.049-0.118c0.027-0.037,0.059-0.058,0.098-0.083c0.024-0.015,0.033-0.043,0.061-0.053
	C17.035,14.641,20.097,13.649,22.184,14.706z M17.373,15.274c0.025,0.478,0.143,1.563,0.596,2.466
	c0.396,0.166,1.905,0.681,3.843-0.078c0.271-0.284,0.823-0.997,0.733-1.577c-0.046-0.304-0.268-0.553-0.675-0.758
	C20.336,14.548,18.091,15.074,17.373,15.274z"/>
</svg>
